<?xml version="1.0" encoding="UTF-8"?>
<svg width="622px" height="128px" viewBox="0 0 622 128" version="1.1" xmlns="http://www.w3.org/2000/svg" xmlns:xlink="http://www.w3.org/1999/xlink">
    <title>Milestone-logo</title>
    <g id="🎨-Assets" stroke="none" stroke-width="1" fill="none" fill-rule="evenodd">
        <g id="_Assets/Logos/Milestone/Positive" fill="#0099DA">
            <path d="M64,0 L128,64.0008278 L64,128 L0,64.0008278 L64,0 Z M598.94694,36.5714286 C613.956968,36.5714286 621.714286,45.6309627 621.714286,64.5614059 C621.714286,65.3760591 621.612066,67.1053532 621.511469,67.8183797 L621.511469,67.8183797 L586.755247,67.8183797 C586.95644,75.8583679 593.404376,81.0478894 602.772866,81.0478894 C608.516624,81.0478894 613.552958,79.523488 617.885114,76.7746479 L617.885114,76.7746479 L618.08793,87.9699832 C613.653555,90.1074235 607.710226,91.4285714 601.161694,91.4285714 C584.136483,91.4285714 572.952381,81.3544088 572.952381,63.7467527 C572.952381,47.9716565 583.330085,36.5714286 598.94694,36.5714286 Z M542.122658,36.5714286 C555.926443,36.5714286 560.761905,45.8352666 560.761905,60.2004182 L560.761905,60.2004182 L560.761905,91.4285714 L547.462761,91.4285714 L547.462554,65.2616764 C547.450212,55.1369288 546.857388,47.7094922 538.093647,47.7094922 C533.660599,47.7094922 529.629966,50.5191543 527.514045,54.6850315 C526.003369,57.7025683 525.299144,61.8650927 525.299144,67.1742811 L525.299144,67.1742811 L525.299144,91.4285714 L512,91.4285714 L512,37.8404704 L524.6939,37.8404704 L524.6939,46.7723794 L524.895107,46.7723794 C528.722911,40.3182034 534.668258,36.5714286 542.122658,36.5714286 Z M478.882069,36.5714286 C494.771634,36.5714286 505.904762,47.4618836 505.904762,64.1532597 C505.904762,80.5381164 494.771634,91.4285714 478.47619,91.4285714 C462.281809,91.4285714 451.047619,80.3348629 451.047619,64.051633 C451.047619,47.1570033 462.180747,36.5714286 478.882069,36.5714286 Z M431.504083,12.1904762 L431.504083,37.8946422 L444.035265,37.8946422 L444.035265,48.0524809 L431.504083,48.0524809 L431.504083,68.712492 C431.504083,76.7298344 433.031516,80.3287818 439.653125,80.3287818 C441.283918,80.3287818 443.116509,80.0208682 444.645582,79.5060234 L444.645582,79.5060234 L444.952381,90.094279 C442.404472,91.0180199 439.042808,91.4285714 435.579425,91.4285714 C423.558481,91.4285714 418.465945,85.4689529 418.465945,71.488681 L418.465945,71.488681 L418.465945,48.0524809 L408.380952,48.0524809 L408.380952,37.8946422 L418.669384,37.8946422 L418.669384,25.139403 L431.504083,12.1904762 Z M385.771015,36.5714286 C390.453083,36.5714286 394.561965,37.2434765 398.107163,38.5088936 L398.107163,38.5088936 L398.107163,49.0469332 C393.930195,47.1258596 390.280494,46.2390841 386.360034,46.2390841 C381.936058,46.2390841 378.691704,48.17491 378.691704,51.7367641 C378.691704,55.2986183 380.756437,56.5197785 387.932335,58.9637383 C396.88004,62.0158194 402.285714,65.7809271 402.285714,74.7371953 C402.285714,85.5260235 393.832025,91.4285714 381.543379,91.4285714 C376.435381,91.4285714 371.674144,90.6876795 367.009494,89.0436208 L367.009494,89.0436208 L367.009494,78.0826827 C371.788148,80.3856763 376.554135,81.4560356 380.854607,81.4560356 C385.278583,81.4560356 389.111956,79.6234756 389.111956,75.8583679 C389.111956,72.1932479 387.245146,70.7688341 379.184136,67.8167406 C369.549243,64.3565132 365.714286,60.3865129 365.714286,52.6530442 C365.714286,42.67723 373.677126,36.5714286 385.771015,36.5714286 Z M336.851702,36.5714286 C351.86173,36.5714286 359.619048,45.6309627 359.619048,64.5614059 C359.619048,65.3133935 359.531949,66.8447201 359.439428,67.6366738 L359.416231,67.8183797 L324.660009,67.8183797 C324.861202,75.8583679 331.309138,81.0478894 340.677628,81.0478894 C346.229927,81.0478894 351.121178,79.6234209 355.354313,77.0454394 L355.789876,76.7746479 L355.992692,87.9699832 C351.558317,90.1074235 345.614988,91.4285714 339.066456,91.4285714 C322.041245,91.4285714 310.857143,81.3544088 310.857143,63.7467527 C310.857143,47.9716565 321.234847,36.5714286 336.851702,36.5714286 Z M298.666667,12.1904762 L298.666667,91.4285714 L286.47619,91.4285714 L286.47619,26.0688625 L298.666667,12.1904762 Z M268.189011,40.0353202 L268.189011,91.4285714 L256,91.4285714 L256,40.0353202 L268.189011,40.0353202 Z M226.901981,36.5714286 C239.707112,36.5714286 243.809524,46.9819306 243.809524,60.2004182 L243.809524,60.2004182 L243.809524,91.4285714 L230.301858,91.4285714 L230.301858,61.6588944 C230.301858,52.3933799 227.401489,47.7094922 221.69904,47.7094922 C215.295669,47.7094922 210.893552,54.0597308 210.893552,64.8843059 L210.893552,64.8843059 L210.893552,91.4285714 L197.387498,91.4285714 L197.387498,59.0554306 C197.387498,52.3933799 194.485518,47.7094922 188.982872,47.7094922 C182.780915,47.7094922 177.979192,54.4754803 177.979192,64.3629426 L177.979192,64.3629426 L177.979192,91.4285714 L164.571429,91.4285714 L164.571429,37.8404704 L176.889942,37.8404704 C176.889942,37.8404704 176.880677,42.4653305 176.877857,45.5228547 L176.877052,46.9819306 L177.078466,46.9819306 C180.378442,40.4238172 187.282933,36.5714286 194.285714,36.5714286 C201.288495,36.5714286 207.092457,40.4238172 208.892297,47.1898053 C212.595103,40.2159425 219.39808,36.5714286 226.901981,36.5714286 Z M478.47619,46.6488695 C470.379815,46.6488695 465.520685,52.9579244 465.520685,64.1532597 C465.520685,74.4339541 470.581939,81.0478894 478.375128,81.0478894 C486.471504,81.0478894 491.63382,74.4339541 491.63382,63.6451259 C491.63382,52.8562977 486.675258,46.6488695 478.47619,46.6488695 Z M598.44071,46.2407233 C592.497382,46.2407233 587.259854,50.3123503 586.554053,58.4556045 L586.554053,58.4556045 L609.321399,58.4556045 C609.321399,49.9042041 605.091462,46.2407233 598.44071,46.2407233 Z M336.345472,46.2407233 C330.496482,46.2407233 325.331064,50.1841182 324.495834,58.070908 L324.458815,58.4556045 L347.226161,58.4556045 C347.226161,49.9042041 342.996224,46.2407233 336.345472,46.2407233 Z M268.190476,18.2857143 L268.190476,30.7682646 L256.001465,30.7682646 L256.001465,18.2857143 L268.190476,18.2857143 Z" id="Milestone-logo"></path>
        </g>
    </g>
</svg>